<svg width="33" height="22" viewBox="0 0 33 22" fill="none" xmlns="http://www.w3.org/2000/svg">
<path d="M33.0001 0H6.10352e-05V21.4429H33.0001V0Z" fill="#F0F0F0"/>
<path d="M32.9482 2.41187H6.10352e-05V5.13026H32.9482V2.41187Z" fill="#D80027"/>
<path d="M32.9482 7.84937H6.10352e-05V10.5677H32.9482V7.84937Z" fill="#D80027"/>
<path d="M32.9482 13.2861H6.10352e-05V16.0045H32.9482V13.2861Z" fill="#D80027"/>
<path d="M32.9482 18.7236H6.10352e-05V21.442H32.9482V18.7236Z" fill="#D80027"/>
<path d="M16.5001 0H6.10352e-05V11.232H16.5001V0Z" fill="#2E52B2"/>
<path d="M6.42379 4.49121L6.15847 5.29941H5.30026L5.99469 5.79864L5.72936 6.60677L6.42379 6.10754L7.11777 6.60677L6.85251 5.79864L7.54694 5.29941H6.68867L6.42379 4.49121Z" fill="#F0F0F0"/>
<path d="M6.68867 8.21585L6.42379 7.40771L6.15847 8.21585H5.30026L5.99469 8.71514L5.72936 9.52328L6.42379 9.02398L7.11777 9.52328L6.85251 8.71514L7.54694 8.21585H6.68867Z" fill="#F0F0F0"/>
<path d="M3.06173 8.21585L2.7968 7.40771L2.53147 8.21585H1.67328L2.3677 8.71514L2.10238 9.52328L2.7968 9.02398L3.49083 9.52328L3.22557 8.71514L3.91986 8.21585H3.06173Z" fill="#F0F0F0"/>
<path d="M2.7968 4.49121L2.53147 5.29941H1.67328L2.3677 5.79864L2.10238 6.60677L2.7968 6.10754L3.49083 6.60677L3.22557 5.79864L3.91986 5.29941H3.06173L2.7968 4.49121Z" fill="#F0F0F0"/>
<path d="M6.42379 1.57446L6.15847 2.38273H5.30026L5.99469 2.88202L5.72936 3.69016L6.42379 3.19086L7.11777 3.69016L6.85251 2.88202L7.54694 2.38273H6.68867L6.42379 1.57446Z" fill="#F0F0F0"/>
<path d="M2.7968 1.57471L2.53147 2.38297H1.67328L2.3677 2.88226L2.10238 3.6904L2.7968 3.1911L3.49083 3.6904L3.22557 2.88226L3.91986 2.38297H3.06173L2.7968 1.57471Z" fill="#F0F0F0"/>
<path d="M10.0507 4.49121L9.78547 5.29941H8.92728L9.62163 5.79864L9.35644 6.60677L10.0507 6.10754L10.7448 6.60677L10.4795 5.79864L11.1739 5.29941H10.3157L10.0507 4.49121Z" fill="#F0F0F0"/>
<path d="M10.3157 8.21585L10.0507 7.40771L9.78547 8.21585H8.92728L9.62163 8.71514L9.35644 9.52328L10.0507 9.02398L10.7448 9.52328L10.4795 8.71514L11.1739 8.21585H10.3157Z" fill="#F0F0F0"/>
<path d="M13.9427 8.21585L13.6778 7.40771L13.4125 8.21585H12.5543L13.2486 8.71514L12.9834 9.52328L13.6778 9.02398L14.3718 9.52328L14.1065 8.71514L14.8009 8.21585H13.9427Z" fill="#F0F0F0"/>
<path d="M13.6778 4.49121L13.4125 5.29941H12.5543L13.2486 5.79864L12.9834 6.60677L13.6778 6.10754L14.3718 6.60677L14.1065 5.79864L14.8009 5.29941H13.9427L13.6778 4.49121Z" fill="#F0F0F0"/>
<path d="M10.0507 1.57446L9.78544 2.38273H8.92725L9.6216 2.88202L9.35641 3.69016L10.0507 3.19086L10.7448 3.69016L10.4795 2.88202L11.1739 2.38273H10.3157L10.0507 1.57446Z" fill="#F0F0F0"/>
<path d="M13.6778 1.57446L13.4125 2.38273H12.5543L13.2486 2.88202L12.9834 3.69016L13.6778 3.19086L14.3718 3.69016L14.1065 2.88202L14.8009 2.38273H13.9427L13.6778 1.57446Z" fill="#F0F0F0"/>
</svg>
