<?xml version="1.0" encoding="utf-8"?>
<!-- Generator: Adobe Illustrator 23.1.0, SVG Export Plug-In . SVG Version: 6.00 Build 0)  -->
<svg version="1.1" id="Layer_1" xmlns="http://www.w3.org/2000/svg" xmlns:xlink="http://www.w3.org/1999/xlink" x="0px" y="0px"
	 viewBox="0 0 215 145" style="enable-background:new 0 0 215 145;" xml:space="preserve">
<style type="text/css">
	.st0{fill:white;}
</style>
<g>
	<path class="st0" d="M47.4,80.1l1,2.2c0,0-8.6,1.5-14.6-1.1c-5.9-2.6-12.7-13.7-6.4-20.1c6.2-6.4,17.8-7.7,15.6-13.8
		c-2.2-6.2,0-16.8,11.1-15.6c11.1,1.2,12.5,12.8,23,5.7c10.5-7.1,24-7.7,28.9-0.7c4.9,6.9-1.2,13.8,9.9,11.1
		c11.1-2.7,18.8,0.7,20.2,6.4c1.5,5.7-1,5.4-4.2,9.1c-3.2,3.8-5.4,7.2-1.5,9.9c4,2.7,2,8.9-3,10c-4.9,1.1-15.3-1.4-15.3-1.4l1.7-1.7
		c0,0,17.3,3.4,13.8-4c-3.5-7.4-5.2-6.2-0.7-12.8c4.4-6.7,7.7-12.3-4.2-13.3c-11.9-1-17.5,5.7-18.8-3.5c-1.2-9.1-8.1-15.3-18.3-9.1
		c-10.1,6.2-12.3,10.9-21,4.2c-8.6-6.7-20.7-7.4-19.8,0.5c1,7.9,8.4,9.1-2.5,14.6c-10.9,5.4-14.3,6.9-12.6,13.1
		C31.6,75.9,32.3,80.1,47.4,80.1"/>
</g>
<polygon class="st0" points="24.5,87.1 24.5,117.1 30.2,114.7 30.2,87.1 "/>
<rect x="34.6" y="87.1" class="st0" width="5.8" height="22.3"/>
<rect x="44.4" y="87.1" class="st0" width="5.8" height="12.7"/>
<g>
	<path class="st0" d="M141.2,96.8c0-6.4-3.1-9.6-9.3-9.6h-7l-1.8,5.5h9.9c1.6,0,2.5,0.9,2.5,2.6v14.3h5.7V96.8z"/>
	<path class="st0" d="M164.8,96.3c0-3.1-0.9-5.5-2.7-7.2c-1.6-1.6-4.2-2.4-7.7-2.4c-3.1,0-5.5,0.6-7.1,1.9c-2,1.5-2.9,3.5-2.9,6.2
		c0,4.3,2.5,6.4,7.5,6.4c0.6,0,1.2-0.1,2-0.2l1.3-4.8c-1,0.1-1.7,0.2-2.2,0.2c-1.1,0-1.8-0.1-2.1-0.3c-0.4-0.2-0.5-0.7-0.5-1.5v-0.1
		c0-1.5,0.7-2.2,2.1-2.2h3.6c1.1,0,1.8,0.2,2.2,0.5c0.5,0.4,0.8,1.1,0.8,2.2v5.9c0,1.3-0.1,2.2-0.4,2.6c-0.4,0.5-1.2,0.7-2.5,0.7
		h-10v5.3h9.7c6.1,0,9.1-3.1,9.1-9.4V96.3z"/>
	<path class="st0" d="M184.8,97.3c0-3.7-0.8-6.4-2.5-8c-1.5-1.4-3.8-2.1-6.9-2.1h-7.3v5.5h7.3c1.4,0,2.4,0.3,2.8,0.8
		c0.4,0.5,0.6,1.4,0.6,2.7v4.3c0,1.4-0.1,2.3-0.3,2.7c-0.3,0.6-1.2,0.9-2.6,0.9h-7.2l-1.7,5.5h8.4c2.7,0,4.9-0.7,6.5-2.1
		c1.9-1.7,2.9-4.4,2.9-8V97.3z"/>
</g>
<polygon class="st0" points="77.3,73.9 80.8,71.4 97,88.4 111.5,71 114.2,72.8 89.7,115.3 84.5,111.9 92.4,96.5 "/>
<polygon class="st0" points="51.2,78.5 61.9,100.1 43.8,112.5 45.1,115.4 72.4,103.7 66,92.3 78.5,65.6 75.2,64.2 60.7,85.2 
	55,76.2 "/>
</svg>
